<?xml version="1.0" encoding="UTF-8"?><svg id="a" xmlns="http://www.w3.org/2000/svg" xmlns:xlink="http://www.w3.org/1999/xlink" viewBox="0 0 1097 1063"><defs><style>.c{fill:none;}.d{fill:#fff;}.e{fill:#2b67c9;}.f{clip-path:url(#b);}</style><clipPath id="b"><rect class="c" width="1097" height="1063"/></clipPath></defs><g class="f"><g><path class="e" d="M557.97,59.49s80.3-48.62,179.8-48.62c0,0,137.96-3.41,244.26,102.89,0,0,173.02,160.58,75.76,401.45,0,0-19.22,54.28-82.55,118.74l-433.11,420.67L95.46,601.17S9.51,512.95,9.51,348.98c0,0-.81-251.91,272.85-331.08,0,0,78.35-20.07,162.19-2.72,47.51,9.82,113.42,44.31,113.42,44.31h0Z"/><path class="d" d="M841.14,374.99v0Zm-8.11-43.39c-5.38-13.4-13.37-25.88-24.44-37.17-11.5-11.6-23.47-19.45-35.72-24.67-12.27-5.17-24.89-7.73-37.81-7.89h-.29c-13.23,.03-26.01,2.54-38.34,7.73-11.73,4.96-23.13,12.36-34.08,23.19l-51.2,61.67,146.66,148.82,49.7-48.97c11.3-11.21,19.47-23.68,25.03-37.11,5.57-13.43,8.46-27.81,8.59-42.52v-.71c0-14.61-2.72-28.94-8.11-42.37h0Z"/><path class="d" d="M518.99,358.41l92.64-111.59c35.39-36.44,79.58-53.55,123.96-53.33,43.36,.41,86.62,17.4,121.71,52.91,35.27,35.81,52.53,82.12,52.25,128.75-.4,46.61-18.33,92.66-54.11,127.99l-98.33,96.92-238.12-241.63Zm-144.96,174.64l82.06-98.85,231.23,234.62-141.98,139.97-171.31-174.55v-101.19ZM241.54,241.9h0c11.33-11.16,23.69-20.5,36.8-28.09l-2.34,321.69-36.33-36.85c-35.27-35.84-52.5-82.14-52.22-128.76,.4-46.64,18.28-92.66,54.09-127.99h0Zm133.63-52.07c41.71,1.73,83.95,17.55,116.73,47.72l-116.73,140.64V189.83Zm551.91-12.24c-52.71-53.62-121.58-81.6-190.49-82.11-.11-.03-.2,0-.3,0-.08-.03-.2-.03-.32-.03-63.96-.46-128.15,22.83-179.42,68.42-52.44-47.51-118.97-71.73-185.3-72.22h-.46c-71.31-.5-143.26,26.42-198.05,80.45-54.82,53.99-82.79,125.55-83.31,196.86v.44c-.53,71.29,26.38,143.24,80.45,198.02l374.44,379.98,379.92-374.47c54.82-54,82.79-125.55,83.29-196.85l.02-.46c.52-71.31-26.4-143.26-80.46-198.03h0Z"/></g></g></svg>