<svg width="75" height="75" viewBox="0 0 75 75" fill="none" xmlns="http://www.w3.org/2000/svg">
<mask id="path-1-outside-1_260_3083" maskUnits="userSpaceOnUse" x="0" y="0" width="75" height="75" fill="black">
<rect fill="white" width="75" height="75"/>
<path d="M47.8914 71.9841H3V27.1086C3 13.7892 13.7892 3 27.1086 3H72V47.8914C72 61.2108 61.2108 72 47.8914 72"/>
</mask>
<path d="M47.8914 71.9841H3V27.1086C3 13.7892 13.7892 3 27.1086 3H72V47.8914C72 61.2108 61.2108 72 47.8914 72" fill="#F54B4B"/>
<path d="M3 71.9841H0V74.9841H3V71.9841ZM72 3H75V0H72V3ZM47.8914 68.9841H3V74.9841H47.8914V68.9841ZM6 71.9841V27.1086H0V71.9841H6ZM6 27.1086C6 15.4461 15.4461 6 27.1086 6V0C12.1324 0 0 12.1324 0 27.1086H6ZM27.1086 6H72V0H27.1086V6ZM69 3V47.8914H75V3H69ZM69 47.8914C69 59.5539 59.5539 69 47.8914 69V75C62.8676 75 75 62.8676 75 47.8914H69Z" fill="white" mask="url(#path-1-outside-1_260_3083)"/>
<path d="M16.7147 61.7495C14.6964 61.7495 11.375 61.2561 10.056 61.0492C9.73818 61.0014 9.51569 60.699 9.54748 60.3806L9.78585 58.2159C9.80175 58.0568 9.88121 57.8976 10.0083 57.8021C10.1196 57.7225 10.2467 57.6748 10.3897 57.6748C10.4215 57.6748 10.4374 57.6748 10.4692 57.6748C11.4386 57.7862 14.7282 58.1841 16.6829 58.1841C19.321 58.1841 20.497 57.1018 20.497 54.6505C20.497 52.6291 19.607 52.0879 16.3174 51.117C13.8383 50.337 12.0902 49.6526 10.9936 48.5862C9.91299 47.5516 9.46802 46.1827 9.46802 43.9862C9.46802 41.7896 10.1832 40.1661 11.5816 39.0519C12.8848 38.0173 14.7282 37.4921 17.0484 37.4921C19.1144 37.4921 22.0226 37.9855 23.1668 38.1924C23.4847 38.2561 23.6913 38.5267 23.6595 38.845L23.4688 40.9938C23.4688 41.153 23.3734 41.3121 23.2463 41.4076C23.135 41.5031 23.0079 41.5509 22.8649 41.5509C22.8331 41.5509 22.8172 41.5509 22.7854 41.5509C21.8478 41.4395 18.6376 41.0734 17.0484 41.0734C14.4104 41.0734 13.1232 42.0125 13.1232 43.9384C13.1232 46.3896 14.3468 46.7557 17.9702 47.8699C20.0361 48.5225 21.6253 49.1592 22.6424 50.146C23.6754 51.1488 24.1521 52.5336 24.1521 54.555C24.1521 57.0381 23.5164 58.8208 22.2133 60.0305C20.9896 61.1606 19.1303 61.7495 16.7147 61.7495Z" fill="white"/>
<path d="M32.0503 41.3758C31.8279 41.3758 31.6372 41.5509 31.6372 41.7896V57.5474C31.6372 57.7702 31.812 57.9612 32.0503 57.9612H36.2299C38.2959 57.9612 39.7579 57.1176 40.5843 55.4304C41.2676 54.0616 41.5855 52.1038 41.5855 49.2706C41.5855 46.4374 41.2835 44.7502 40.6002 43.5246C39.7738 42.0602 38.3912 41.3758 36.2458 41.3758H32.0662H32.0503ZM36.2299 61.4152H28.6495C28.3158 61.4152 28.0456 61.1446 28.0456 60.8104V38.5107C28.0456 38.1765 28.3158 37.9059 28.6495 37.9059H36.2299C39.6785 37.9059 42.0463 38.9087 43.4925 40.9779C44.7321 42.7765 45.3042 45.4028 45.3042 49.2547C45.3042 53.1066 44.748 56.0512 43.5402 57.9772C42.094 60.2851 39.7102 61.4152 36.2299 61.4152Z" fill="white"/>
<path d="M53.1071 41.4076C52.8846 41.4076 52.6939 41.5827 52.6939 41.8215V50.1619C52.6939 50.3848 52.8687 50.5599 53.1071 50.5599H57.6522C59.5115 50.5599 61.7364 49.7163 61.7364 45.737C61.7364 42.7924 60.4333 41.4076 57.6522 41.4076H53.1071ZM52.09 61.4152H49.6744C49.3407 61.4152 49.0706 61.1446 49.0706 60.8104V38.5107C49.0706 38.1765 49.3407 37.9059 49.6744 37.9059H57.6363C60.2743 37.9059 62.1973 38.5426 63.4845 39.8478C64.7876 41.1529 65.4074 43.0789 65.4074 45.737C65.4074 48.3952 64.7558 50.4484 63.4845 51.8651C62.1655 53.3294 60.1949 54.0775 57.6204 54.0775H53.0753C52.8528 54.0775 52.6621 54.2526 52.6621 54.4754V60.8263C52.6621 61.1606 52.392 61.4311 52.0582 61.4311" fill="white"/>
</svg>
