<?xml version="1.0" encoding="UTF-8" standalone="no"?>
<svg
   xmlns:dc="http://purl.org/dc/elements/1.1/"
   xmlns:cc="http://creativecommons.org/ns#"
   xmlns:rdf="http://www.w3.org/1999/02/22-rdf-syntax-ns#"
   xmlns:svg="http://www.w3.org/2000/svg"
   xmlns="http://www.w3.org/2000/svg"
   version="1.1"
   id="svg2"
   viewBox="0 0 1316 410"
   height="115.71111mm"
   width="371.40445mm">
  <defs
     id="defs4" />
  <metadata
     id="metadata7">
    <rdf:RDF>
      <cc:Work
         rdf:about="">
        <dc:format>image/svg+xml</dc:format>
        <dc:type
           rdf:resource="http://purl.org/dc/dcmitype/StillImage" />
        <dc:title></dc:title>
      </cc:Work>
    </rdf:RDF>
  </metadata>
  <g
     transform="translate(295.14285,-264.50507)"
     id="layer1">
    <path
       id="path3347"
       d="m -109.79326,673.35558 c -22.51861,-2.13004 -48.51822,-9.37614 -68.96885,-19.22163 -50.4808,-24.30284 -88.59126,-67.70764 -105.93953,-120.65676 -16.80275,-51.2841 -12.9479,-106.26548 10.8323,-154.5 24.49947,-49.69345 66.95583,-86.57411 119.60723,-103.8995 63.760551,-20.98093 132.906831,-9.63332 186.756191,30.64861 37.20565,27.83163 64.38106,68.64344 75.648529,113.60834 4.45952,17.79655 5.94585,30.33106 5.94585,50.14255 0,33.00423 -6.19103,60.2314 -20.350889,89.5 -37.04701,76.5766 -118.60765,122.4113 -203.530831,114.37839 z m 20.058181,-25.32455 c 4.55528,-2.98474 3.90577,-10.0233 -1.6795,-18.20024 -5.3397,-7.81743 -14.861981,-13.24278 -38.378681,-21.86638 -7.15,-2.62192 -15.19725,-5.867 -17.88279,-7.2113 -6.5563,-3.2819 -13.63407,-10.07429 -17.19518,-16.50185 -2.73264,-4.93223 -2.92203,-5.98703 -2.92203,-16.27407 0,-10.6077 0.12092,-11.22297 3.39044,-17.25209 4.13359,-7.6225 10.38155,-13.56077 17.93441,-17.04547 4.55029,-2.09939 7.59506,-2.6988 15.36145,-3.02415 12.89119,-0.54005 20.83401,0.98027 35.813701,6.85505 15.67303,6.14668 24.17221,8.12063 35.11917,8.15644 10.25605,0.0336 17.87745,-1.95591 23.72772,-6.19383 5.41925,-3.92568 8.14466,-8.44835 8.14937,-13.52344 0.007,-7.46169 -5.27971,-11.45506 -15.21414,-11.49232 -8.26003,-0.031 -17.42502,-1.63776 -28.11876,-4.92971 -7.98402,-2.45779 -10.2441,-2.81368 -12,-1.88959 -3.36003,1.76829 -3.75733,2.92288 -3.09923,9.00651 0.55485,5.12917 0.40587,5.77829 -1.56867,6.83503 -3.50348,1.875 -6.87568,0.30094 -13.915471,-6.4954 -7.05946,-6.81533 -10.17701,-8.50703 -15.67721,-8.50703 -5.23004,0 -9.82093,2.35312 -12.96208,6.64389 -7.26503,9.92392 -11.87535,13.35611 -17.9407,13.35611 -7.61922,0 -12.5,-5.07601 -12.5,-13 0,-7.85007 3.52515,-11.88234 15.5,-17.72979 11.89681,-5.80934 12.17194,-6.03938 18.83677,-15.74998 8.80073,-12.82259 17.5389,-21.79027 23.89834,-24.52602 4.177761,-1.79723 7.443701,-2.29877 16.377371,-2.515 15.57825,-0.37707 20.75903,-1.74149 25.35852,-6.67845 2.43248,-2.61097 2.58973,-5.09717 0.45725,-7.22965 -1.28861,-1.28862 -3.05999,-1.45735 -9.83344,-0.9367 -8.09564,0.62228 -8.32604,0.57706 -11.46298,-2.24969 -4.75641,-4.28606 -5.05636,-8.44303 -1.23711,-17.14484 4.68069,-10.66455 4.01476,-16.23988 -1.93973,-16.23988 -5.66607,0 -9.90142,8.8613 -9.93303,20.78212 -0.0243,9.14909 -1.5585,14.07923 -5.739951,18.44476 -5.39177,5.62914 -13.47068,5.94187 -21.52612,0.83326 -5.09038,-3.22822 -7.75589,-8.0374 -7.75589,-13.99339 0,-5.82615 2.19496,-10.41269 8.86337,-18.52072 3.18723,-3.87532 8.34917,-10.94393 11.47098,-15.70802 9.42107,-14.3772 19.605371,-21.83702 32.828721,-24.04646 9.09118,-1.51902 13.48939,-0.071 20.08055,6.61085 2.89101,2.93081 6.31626,5.88043 7.61168,6.55471 6.16632,3.20966 16.42424,-3.74284 20.12805,-13.64216 2.6717,-7.14077 4.34234,-23.54484 3.50042,-34.37088 -0.77704,-9.99182 0.24226,-14.76291 4.49473,-21.03868 6.26609,-9.24744 2.93558,-13.89332 -13.84975,-19.31966 -33.56701,-10.85149 -64.853561,-11.28563 -71.597231,-0.9935 -0.87208,1.33097 -2.00896,4.65233 -2.52641,7.38081 -0.51744,2.72849 -2.50443,7.33825 -4.41553,10.24392 -1.91109,2.90567 -3.7583,6.45663 -4.10491,7.89101 -0.69627,2.88142 1.08795,7.42432 5.02323,12.78991 3.07646,4.19464 3.31644,10.56664 0.59851,15.89196 -3.43628,6.73279 -7.51372,9.04907 -28.72539,16.31807 -19.03789,6.52406 -26.38102,6.66536 -26.38102,0.50761 0,-3.6523 1.36966,-5.8698 8.62197,-13.95909 7.94398,-8.86078 10.15532,-14.73628 6.8066,-18.085 -4.11367,-4.11368 -14.42619,0.3382 -23.50905,10.14878 -3.00198,3.2425 -8.72687,11.13181 -12.72198,17.53181 -4.16981,6.67987 -9.27297,13.42298 -11.98068,15.83082 -6.6625,5.92463 -16.86259,10.4669 -30.21686,13.45607 -13.45921,3.01267 -20.24953,5.86446 -24.80096,10.41589 -9.84788,9.84788 -16.21802,36.35465 -16.18072,67.32958 0.0747,62.0607 28.30546,114.58263 80.9806,150.66053 23.20202,15.89137 51.5354,25.94744 83.00108,29.45872 5.88084,0.65625 15.237991,-0.32955 17.558181,-1.84979 z M -151.07075,483.92049 c -3.86948,-2.71029 -2.95058,-6.79319 2.9277,-13.0086 4.3293,-4.57761 5.28098,-6.28152 5.9707,-10.69014 0.89222,-5.70302 3.45882,-8.74456 7.37909,-8.74456 8.88482,0 11.00893,17.0742 3.2892,26.43957 -5.38747,6.53593 -14.71902,9.39917 -19.56669,6.00373 z m -10.02251,-15.6433 c -3.12877,-3.12877 0.96986,-11.38508 6.86375,-13.82641 2.57248,-1.06555 3.26147,-0.98925 4.96177,0.54951 3.08535,2.7922 2.52795,7.12343 -1.42552,11.0769 -3.56817,3.56817 -8.07786,4.52214 -10.4,2.2 z m 14.1083,-79.75842 c -3.23307,-1.37778 -5.64386,-5.56848 -4.90254,-8.52213 1.4366,-5.72387 14.24591,-8.64804 18.41993,-4.205 2.91189,3.09957 2.739,6.02205 -0.57569,9.73152 -2.99451,3.35114 -8.89985,4.71805 -12.9417,2.99561 z M -4.2932594,628.90058 c 21.8004704,-10.13552 49.2455904,-35.3966 66.1907804,-60.92339 13.66051,-20.57865 25.13079,-51.58333 26.45165,-71.5 0.64958,-9.79476 -0.41312,-13.58212 -4.21678,-15.02827 -3.89624,-1.48135 -7.05344,0.53143 -12.99267,8.28307 -6.60956,8.62653 -8.50834,10.08174 -21.84927,16.7452 -14.56351,7.2741 -14.93164,7.82289 -15.6424,23.31918 -0.84776,18.48297 -4.37023,24.29444 -20.08006,33.12865 -9.2408904,5.19649 -10.1353204,6.80147 -9.3875204,16.84512 0.80552,10.81871 -0.35296,14.13153 -7.97444,22.80386 -9.3014096,10.5839 -13.5853796,17.12612 -14.1960996,21.67943 -0.44796,3.33975 -0.16839,4.20477 1.80591,5.58762 3.18545,2.23118 5.45511,2.05167 11.8908996,-0.94047 z M 726.70674,537.97747 c -9.8032,-2.20412 -20.6169,-7.96657 -27.07029,-14.42532 -20.35195,-20.36899 -19.88143,-62.13909 0.9342,-82.93296 9.72569,-9.7155 22.77329,-14.78381 40.63609,-15.78493 27.9168,-1.56459 48.1567,11.18215 54.6698,34.4301 2.4284,8.66783 3.5282,24.04005 1.9332,27.02038 l -1.1734,2.19245 -38.9019,0 -38.902,0 0.5106,3.75 c 0.2808,2.0625 1.94,6.63036 3.6871,10.1508 2.7176,5.47588 3.9714,6.84865 8.6766,9.5 4.9558,2.79256 6.341,3.09881 14,3.09528 10.8188,-0.005 17.3258,-2.83634 20.6747,-8.99608 1.1961,-2.2 2.6764,-4.5625 3.2895,-5.25 1.5242,-1.70923 25.1326,-1.75322 26.8358,-0.05 3.4064,3.40644 -1.2322,16.94144 -8.2581,24.09612 -5.2074,5.30289 -10.257,8.2792 -19.2734,11.36002 -6.6571,2.27469 -9.7714,2.70102 -21.7685,2.98001 -9.7221,0.22609 -15.9862,-0.12099 -20.5,-1.13587 z m 41.6373,-72.13008 c -1.4376,-10.48803 -9.3814,-16.37467 -22.0836,-16.36462 -3.8796,0.003 -8.7731,0.48301 -10.8745,1.06654 -5.6313,1.56372 -11.2376,7.13169 -13.6364,13.54312 -1.1236,3.00288 -2.0428,5.6679 -2.0428,5.92227 0,0.25437 11.0862,0.46249 24.6359,0.46249 l 24.6359,0 -0.6345,-4.6298 z m 71.1354,72.13235 c -12.1823,-3.07546 -20.4117,-9.08573 -24.7937,-18.10764 -1.9271,-3.96779 -2.3803,-6.50485 -2.3925,-13.39491 -0.023,-13.22847 4.5406,-20.99028 15.6542,-26.62198 8.5438,-4.32948 16.1928,-5.34168 40.5093,-5.36066 l 22.25,-0.0174 0,-7.2656 c 0,-9.31884 -2.0328,-13.35742 -8.3645,-16.61767 -9.8321,-5.0627 -26.6006,-3.51222 -32.0495,2.96343 -1.4229,1.69104 -2.868,4.8313 -3.2113,6.97835 -0.3434,2.14705 -1.1924,4.37526 -1.8868,4.95156 -0.7843,0.65085 -6.5147,0.94215 -15.1252,0.76888 l -13.8627,-0.27895 0.029,-8.03445 c 0.024,-6.86868 0.4154,-8.69452 2.6946,-12.58364 7.4672,-12.74178 21.7956,-19.30636 44.7767,-20.51452 25.761,-1.35429 45.7257,6.07815 54.8252,20.41024 6.1667,9.71272 6.4832,12.103 6.9157,52.22237 0.3358,31.14125 0.1756,36.79363 -1.091,38.5 -1.3286,1.79 -2.8636,2.0347 -14.6198,2.33052 -18.2045,0.45806 -18.3598,0.34587 -17.5016,-12.64023 l 0.6405,-9.69029 -2.9589,6 c -3.6449,7.39098 -6.9674,10.58583 -14.7101,14.14498 -5.3261,2.44826 -7.3479,2.78868 -18,3.03076 -8.0051,0.18191 -13.9067,-0.20865 -17.7273,-1.17319 z m 36.0599,-23.04548 c 9.3745,-2.78392 15.1674,-9.84966 15.1674,-18.50001 l 0,-4.10718 -19.75,0.32506 c -17.3326,0.28527 -20.1374,0.55949 -22.9148,2.24033 -8.9776,5.43308 -6.3393,17.32039 4.5784,20.62901 4.472,1.35524 17.5022,1.0214 22.919,-0.58721 z m 103.9917,22.99968 c -13.1784,-3.19641 -21.8871,-9.97674 -25.9908,-20.23577 -2.1724,-5.43096 -2.3056,-7.22911 -2.6278,-35.47098 l -0.3394,-29.75 -7.398,0 c -9.1732,0 -9.4683,-0.41643 -9.4683,-13.36283 0,-11.85949 0.5918,-12.63717 9.6169,-12.63717 8.5055,0 10.8192,-2.07639 11.7742,-10.56638 1.422,-12.64293 1.6773,-13.50914 4.2724,-14.49578 1.3567,-0.51581 6.6123,-0.93784 11.6791,-0.93784 13.4738,0 13.6574,0.19573 13.6574,14.5567 l 0,11.4433 16.96486,0 c 20.0795,0 19.0352,-0.71318 19.0352,13 0,13.71611 1.0511,13 -19.0818,13 l -17.01146,0 0.2966,26.43607 0.2966,26.43608 2.8988,3.02391 c 3.7474,3.9093 11.2591,5.55839 21.11246,4.63505 9.882,-0.92602 10.4888,-0.24056 10.4888,11.84919 0,10.87121 -0.8268,12.47267 -7.0593,13.67554 -6.7776,1.30808 -26.74246,0.94691 -33.11646,-0.59909 z m -722.38636,-0.41839 c -2.79315,-1.13086 -57.14119,-143.69905 -55.66948,-146.03466 0.77904,-1.23633 4.34282,-1.55196 20.04287,-1.77513 17.42249,-0.24765 19.17601,-0.11624 20.01586,1.5 0.50628,0.97429 9.60669,27.07951 20.22314,58.01161 10.61646,30.9321 19.46337,56.07946 19.65981,55.88302 0.19643,-0.19644 8.91051,-25.7057 19.36461,-56.68725 10.45411,-30.98155 19.50286,-56.927 20.10833,-57.65655 1.71208,-2.06292 33.72741,-1.37317 35.06841,0.75553 0.71227,1.13065 -6.23904,20.45228 -26.39227,73.35909 -23.3186,61.21662 -27.70113,71.95574 -29.67432,72.71507 -2.9091,1.11949 -39.95861,1.05819 -42.74696,-0.0707 z m 115.81206,-0.0308 -2.25,-0.94312 0,-53.83223 c 0,-40.53617 0.29639,-54.12861 1.2,-55.03222 1.46615,-1.46615 28.5223,-1.66079 30.8,-0.22156 2.22374,1.40512 2.80702,105.5341 0.60802,108.54587 -1.29584,1.77479 -2.79825,1.9986 -14.77527,2.20103 -7.33301,0.12394 -14.34525,-0.19906 -15.58275,-0.71777 z m 54,-0.0387 -2.25,-0.90439 0,-76.33223 c 0,-58.03617 0.28763,-76.61985 1.2,-77.53222 0.82497,-0.82497 5.8144,-1.2 15.96482,-1.2 13.57408,0 14.8483,0.15599 15.8,1.93426 1.14229,2.1344 1.27286,46.05544 0.18497,62.22159 -0.35739,5.31071 -0.31229,9.44665 0.10021,9.19098 0.4125,-0.25568 0.75,-1.04143 0.75,-1.74612 0,-3.45877 6.54581,-13.89887 11.6249,-18.54087 7.78214,-7.11243 15.80186,-9.55443 31.3751,-9.55367 17.69493,8.7e-4 28.14306,4.32374 36.23917,14.99383 7.38578,9.73392 7.76083,12.49482 7.76083,57.13009 l 0,39.41941 -2.75,1.04779 c -3.93713,1.50011 -27.78374,0.77502 -29.45286,-0.89554 -0.99292,-0.99377 -1.41441,-9.45481 -1.79714,-36.07567 l -0.5,-34.77742 -2.68402,-4.05318 c -4.08011,-6.16146 -10.21961,-8.72636 -20.81598,-8.69632 -13.19146,0.0374 -21.49903,4.87646 -26.3485,15.34767 -1.97737,4.26963 -2.12767,6.48367 -2.41364,35.55317 -0.37158,37.77245 1.23908,34.52858 -17.09864,34.43661 -6.95157,-0.0349 -13.65172,-0.47036 -14.88922,-0.96777 z m 141,0.0387 -2.25,-0.94312 0,-53.83223 c 0,-40.53617 0.29639,-54.12861 1.2,-55.03222 1.89335,-1.89335 29.17751,-1.65498 30.77416,0.26886 0.86966,1.04789 1.11971,5.47622 0.87244,15.45136 -0.19063,7.69038 -0.0635,13.6669 0.2826,13.28114 0.34606,-0.38575 1.19499,-2.50136 1.88652,-4.70136 3.79482,-12.07272 11.22486,-20.88256 20.7633,-24.61916 7.70433,-3.01811 22.2287,-3.24811 30.18897,-0.47807 11.52837,4.01169 18.85398,14.92154 21.21109,31.58917 1.3831,9.78016 0.25391,28.43221 -1.84855,30.53468 -1.13779,1.13779 -4.26899,1.47339 -13.74697,1.47339 -15.62967,0 -15.29057,0.31207 -15.75564,-14.5 -0.40258,-12.82164 -2.03331,-17.22128 -7.68438,-20.73205 -2.81101,-1.74636 -5.05906,-2.24761 -9.83853,-2.19369 -11.29449,0.12741 -19.32285,7.49118 -22.7708,20.88584 -1.19458,4.64068 -1.53421,11.95909 -1.53421,33.05887 0,21.80483 -0.27687,27.47798 -1.41725,29.0399 -1.26438,1.73174 -2.85543,1.96544 -14.75,2.16647 -7.33301,0.12394 -14.34525,-0.19906 -15.58275,-0.71777 z M 381.39172,419.46033 c -11.03748,-3.31299 -17.01611,-17.53326 -11.72883,-27.89719 6.79511,-13.3195 24.40607,-14.65508 33.63827,-2.55104 3.86597,5.06854 4.57418,14.25412 1.55525,20.1717 -4.53346,8.88633 -14.11539,13.0828 -23.46469,10.27653 z m 455.84462,-3.26482 c -16.2358,-9.19563 -9.7547,-33.71832 8.9114,-33.71832 10.3168,0 18.0257,7.69791 18.0257,18 0,4.53236 -0.5588,6.54081 -2.7345,9.82846 -5.2311,7.90482 -16.0126,10.52855 -24.2026,5.88986 z m 46.3009,0.31082 c -9.421,-5.1202 -12.2324,-18.0385 -5.8702,-26.97339 5.7693,-8.10226 19.5421,-9.50357 26.9216,-2.73914 3.206,2.9388 6.0742,9.39992 6.0742,13.68339 0,5.08775 -3.1893,11.31338 -7.4673,14.57634 -4.9647,3.78674 -14.1191,4.46328 -19.6583,1.4528 z"
       style="fill:#006845;fill-opacity:1" />
  </g>
</svg>
