<svg enable-background="new 0 0 96.9 102.5" height="325.360377" viewBox="0 0 96.9 102.5" width="307.3515" xmlns="http://www.w3.org/2000/svg"><g fill="#F00A64"><path d="m94.1 84c0-1.1-.7-1.9-1.8-1.9s-1.8.8-1.8 1.9.7 1.9 1.8 1.9c1.2 0 1.8-.8 1.8-1.9m-5.9 0c0-2.3 1.6-3.9 4.2-3.9s4.1 1.6 4.1 3.9-1.6 3.9-4.1 3.9c-2.6 0-4.2-1.6-4.2-3.9m-.9 1.8v1.9c-.3.1-.9.1-1.6.1-1.1 0-2.7-.2-2.7-2.7v-3h-1.2v-1.9h1.2v-2.2h2.4v2.2h1.7v1.9h-1.7v2.5c0 1.1.5 1.3 1 1.3.4 0 .7 0 .9-.1m-13-.3h2.4c0 .5.5.9 1.2.9.5 0 .9-.2.9-.7 0-.3-.2-.5-.8-.7l-1.6-.4c-1.2-.3-1.9-1-1.9-2.2 0-1.4 1.3-2.3 3.2-2.3 2.1 0 3.3.8 3.3 2.3h-2.3c0-.5-.4-.8-1-.8-.5 0-.9.2-.9.6 0 .3.2.6.8.7l1.6.4c1.2.3 1.9 1 1.9 2.1 0 1.5-1.3 2.4-3.3 2.4-2.1.1-3.5-.9-3.5-2.3m-3.8-5.2h2.4v7.4h-2.4zm-.3-2.1c0-.8.6-1.4 1.5-1.4s1.5.6 1.5 1.4-.6 1.4-1.5 1.4-1.5-.6-1.5-1.4m-13.6 2.1h2.4v1.1c.3-.7 1.1-1.3 2.1-1.3 1.3 0 2 .6 2.3 1.4.4-.8 1.3-1.4 2.4-1.4 2.1 0 2.7 1.5 2.7 3v4.6h-2.4v-4.2c0-1-.4-1.5-1.1-1.5s-1.3.4-1.3 1.8v3.8h-2.4v-4.2c0-1-.4-1.4-1.1-1.4-.8 0-1.3.4-1.3 1.8v3.8h-2.4v-7.3zm-13.9 0h2.4v1.1c.3-.7 1.1-1.3 2.1-1.3 1.3 0 2 .6 2.3 1.4.4-.8 1.3-1.4 2.4-1.4 2.1 0 2.7 1.5 2.7 3v4.6h-2.4v-4.2c0-1-.4-1.5-1.1-1.5s-1.3.4-1.3 1.8v3.8h-2.4v-4.2c0-1-.4-1.4-1.1-1.4-.8 0-1.3.4-1.3 1.8v3.8h-2.4v-7.3zm-3.8 2.9c0-1-.6-1.5-1.6-1.5s-1.6.6-1.7 1.5zm2.3 1.4h-5.5c0 1 .7 1.5 1.8 1.5.7 0 1.2-.2 1.4-.7h2.3c-.2 1.5-1.7 2.4-3.7 2.4-2.5 0-4.1-1.4-4.1-3.9 0-2.4 1.6-3.9 4-3.9 2.3 0 3.9 1.4 3.9 3.5 0 .5 0 .7-.1 1.1m-15.7.9h2.4c0 .5.5.9 1.2.9.5 0 .9-.2.9-.7 0-.3-.2-.5-.8-.7l-1.6-.4c-1.2-.3-1.9-1-1.9-2.2 0-1.4 1.3-2.3 3.2-2.3 2.1 0 3.3.8 3.3 2.3h-2.3c0-.5-.4-.8-1-.8-.5 0-.9.2-.9.6 0 .3.2.6.8.7l1.6.4c1.2.3 1.9 1 1.9 2.1 0 1.5-1.3 2.4-3.3 2.4-2.1.1-3.5-.9-3.5-2.3m-3.8-1.5c0-1.1-.6-1.9-1.8-1.9-1.1 0-1.8.8-1.8 1.9s.7 2 1.8 2c1.2-.1 1.8-.9 1.8-2m-6 0c0-2.2 1.4-3.9 3.6-3.9 1.1 0 1.9.5 2.3 1.3v-1.1h2.4v7.4h-2.4v-1c-.4.7-1.3 1.2-2.4 1.2-2.2 0-3.5-1.7-3.5-3.9m-8.9-3.7h2.6l1.7 4.7 1.7-4.7h2.6l-3.2 7.4h-2.1zm69.8 14.6h2.4v1.1c.4-.8 1.3-1.3 2.4-1.3 1.8 0 2.7 1 2.7 3v4.6h-2.4v-3.8c0-1.2-.4-1.8-1.3-1.8s-1.4.6-1.4 1.8v3.9h-2.4zm-6.5 0h2.4v1.6c.3-1.1 1.1-1.7 2.1-1.7.3 0 .4 0 .6.1v2.1c-.3 0-.4 0-.7 0-1.3 0-2 .8-2 2.5v2.9h-2.4zm-3.7 2.9c0-1-.6-1.5-1.6-1.5s-1.6.6-1.7 1.5zm2.2 1.5h-5.5c0 1 .7 1.5 1.8 1.5.7 0 1.2-.2 1.4-.7h2.3c-.2 1.5-1.7 2.4-3.7 2.4-2.5 0-4.1-1.4-4.1-3.9 0-2.4 1.6-3.9 4-3.9 2.3 0 3.9 1.4 3.9 3.5 0 .4 0 .6-.1 1.1m-8.7 1.1v1.9c-.3.1-.9.1-1.6.1-1.1 0-2.7-.2-2.7-2.7v-3h-1.2v-1.9h1.2v-2.2h2.4v2.2h1.7v1.9h-1.7v2.5c0 1.1.4 1.3 1 1.3.3 0 .7 0 .9-.1m-13-.3h2.4c0 .5.5.9 1.2.9.5 0 .9-.2.9-.7 0-.3-.2-.5-.8-.7l-1.6-.4c-1.2-.3-1.9-1-1.9-2.2 0-1.4 1.3-2.3 3.2-2.3 2.1 0 3.3.8 3.3 2.3h-2.3c0-.5-.4-.8-1-.8-.5 0-.9.2-.9.6 0 .3.2.6.8.7l1.6.4c1.2.3 1.9 1 1.9 2.1 0 1.5-1.3 2.4-3.3 2.4-2.1.1-3.5-.9-3.5-2.3m-9-5.2h2.4v1.1c.4-.8 1.3-1.3 2.4-1.3 1.8 0 2.7 1 2.7 3v4.6h-2.4v-3.8c0-1.2-.4-1.8-1.3-1.8s-1.4.6-1.4 1.8v3.9h-2.4zm-5.8-2.2c0-.7.6-1.3 1.3-1.3.8 0 1.4.6 1.4 1.3s-.6 1.3-1.4 1.3c-.7.1-1.3-.5-1.3-1.3m1.5 5.9c0-1.1-.6-1.9-1.8-1.9-1.1 0-1.8.8-1.8 1.9s.7 2 1.8 2c1.2 0 1.8-.9 1.8-2m-4.9-5.9c0-.7.6-1.3 1.3-1.3.8 0 1.3.6 1.3 1.3s-.6 1.3-1.3 1.3c-.7.1-1.3-.5-1.3-1.3m-1.1 5.9c0-2.2 1.4-3.9 3.6-3.9 1.1 0 1.9.5 2.3 1.3v-1.1h2.4v7.4h-2.4v-1c-.4.7-1.3 1.2-2.4 1.2-2.2 0-3.5-1.7-3.5-3.9m-8.9-3.7h2.6l1.7 4.7 1.7-4.7h2.6l-3.2 7.4h-2.1z"/><path d="m84.5 17c-.9 0-1.6-.7-1.6-1.6s.7-1.6 1.6-1.6 1.6.7 1.6 1.6-.7 1.6-1.6 1.6m12.3-7.3c-.2-.3-.5-.5-.8-.5h-3.5c-2.2 0-4.4-.2-6.6-.5-4.6-.6-9.1 1.3-11.9 5-4.1 5.5-10 13.3-12 16.1-.2.2-.5.4-.7.4-.3 0-.6-.1-.7-.4-2.5-3.4-10.9-14.6-16.6-22.3-3.7-4.7-9.2-7.5-15.2-7.5h-27.9c-.3 0-.6.2-.8.5s-.1.7.1 1c7 9.4 45.1 60.5 51 68.3.2.2.5.4.7.4s.6-.1.7-.4c5.3-7.2 37.7-50.5 44.1-59.1.2-.3.3-.6.1-1"/></g></svg>